{
	"asset":{
		"generator":"Khronos glTF Blender I/O v4.2.69",
		"version":"2.0"
	},
	"scene":0,
	"scenes":[
		{
			"name":"Scene",
			"nodes":[
				0,
				1,
				2,
				3,
				4
			]
		}
	],
	"nodes":[
		{
			"mesh":0,
			"name":"Collina",
			"scale":[
				17.62866973876953,
				1.1569498777389526,
				17.62866973876953
			],
			"translation":[
				0,
				1.1567137241363525,
				0
			]
		},
		{
			"name":"TreeOrigin",
			"translation":[
				12.379486083984375,
				1.722000241279602,
				-11.906986236572266
			]
		},
		{
			"name":"Tree_base.001",
			"rotation":[
				0,
				0.8112806677818298,
				0,
				0.5846568942070007
			],
			"scale":[
				0.7859823703765869,
				0.7859823703765869,
				0.7859823703765869
			],
			"translation":[
				-1.7978754043579102,
				1.722000241279602,
				-18.5644474029541
			]
		},
		{
			"name":"TreeOrigin.001",
			"rotation":[
				0,
				-0.819148600101471,
				0,
				0.573581337928772
			],
			"scale":[
				0.8918778300285339,
				0.8918777704238892,
				0.8918778300285339
			],
			"translation":[
				-4.5443434715271,
				1.722000241279602,
				11.164953231811523
			]
		},
		{
			"name":"Tree LOD 0",
			"translation":[
				17.3479061126709,
				1.404381513595581,
				2.388033390045166
			]
		}
	],
	"meshes":[
		{
			"name":"Sfera",
			"primitives":[
				{
					"attributes":{
						"POSITION":0,
						"NORMAL":1,
						"TEXCOORD_0":2
					},
					"indices":3
				}
			]
		}
	],
	"accessors":[
		{
			"bufferView":0,
			"componentType":5126,
			"count":1012,
			"max":[
				0.9999997019767761,
				1,
				0.9999993443489075
			],
			"min":[
				-0.9999990463256836,
				0,
				-1
			],
			"type":"VEC3"
		},
		{
			"bufferView":1,
			"componentType":5126,
			"count":1012,
			"type":"VEC3"
		},
		{
			"bufferView":2,
			"componentType":5126,
			"count":1012,
			"type":"VEC2"
		},
		{
			"bufferView":3,
			"componentType":5123,
			"count":1440,
			"type":"SCALAR"
		}
	],
	"bufferViews":[
		{
			"buffer":0,
			"byteLength":12144,
			"byteOffset":0,
			"target":34962
		},
		{
			"buffer":0,
			"byteLength":12144,
			"byteOffset":12144,
			"target":34962
		},
		{
			"buffer":0,
			"byteLength":8096,
			"byteOffset":24288,
			"target":34962
		},
		{
			"buffer":0,
			"byteLength":2880,
			"byteOffset":32384,
			"target":34963
		}
	],
	"buffers":[
		{
			"byteLength":35264,
			"uri":"collina.bin"
		}
	]
}
