{
	"asset":{
		"generator":"Khronos glTF Blender I/O v4.2.69",
		"version":"2.0"
	},
	"scene":0,
	"scenes":[
		{
			"name":"Scene",
			"nodes":[
				0,
				1
			]
		}
	],
	"nodes":[
		{
			"mesh":0,
			"name":"BirchTree_1_Cube",
			"rotation":[
				0.7158032655715942,
				-0.02592775970697403,
				0.027395285665988922,
				0.6972826719284058
			],
			"scale":[
				2.9648380279541016,
				2.9648380279541016,
				2.9648380279541016
			],
			"translation":[
				11.335317611694336,
				0,
				4.665050506591797
			]
		},
		{
			"name":"Grass_Short_Plane.003",
			"rotation":[
				0.7071068286895752,
				0,
				0,
				0.7071068286895752
			],
			"scale":[
				3.1687605381011963,
				3.1687605381011963,
				3.1687605381011963
			],
			"translation":[
				0.30185651779174805,
				0,
				-6.724084854125977
			]
		}
	],
	"meshes":[
		{
			"name":"BirchTree_1_Cube",
			"primitives":[
				{
					"attributes":{
						"POSITION":0,
						"NORMAL":1,
						"COLOR_0":2
					},
					"indices":3
				}
			]
		}
	],
	"accessors":[
		{
			"bufferView":0,
			"componentType":5126,
			"count":5751,
			"max":[
				0.8790640234947205,
				1.204300880432129,
				-1.1012389659881592
			],
			"min":[
				-7.258288860321045,
				-5.304337501525879,
				-5.368324279785156
			],
			"type":"VEC3"
		},
		{
			"bufferView":1,
			"componentType":5126,
			"count":5751,
			"type":"VEC3"
		},
		{
			"bufferView":2,
			"componentType":5123,
			"count":5751,
			"normalized":true,
			"type":"VEC4"
		},
		{
			"bufferView":3,
			"componentType":5123,
			"count":8589,
			"type":"SCALAR"
		}
	],
	"bufferViews":[
		{
			"buffer":0,
			"byteLength":69012,
			"byteOffset":0,
			"target":34962
		},
		{
			"buffer":0,
			"byteLength":69012,
			"byteOffset":69012,
			"target":34962
		},
		{
			"buffer":0,
			"byteLength":46008,
			"byteOffset":138024,
			"target":34962
		},
		{
			"buffer":0,
			"byteLength":17178,
			"byteOffset":184032,
			"target":34963
		}
	],
	"buffers":[
		{
			"byteLength":201212,
			"uri":"alberi-test-chioma.bin"
		}
	]
}
