{
	"asset":{
		"generator":"Khronos glTF Blender I/O v4.4.55",
		"version":"2.0"
	},
	"scene":0,
	"scenes":[
		{
			"name":"Scene",
			"nodes":[
				4
			]
		}
	],
	"nodes":[
		{
			"mesh":0,
			"name":"Blossomtree00_jabami_mesh_Jabami_blossom_mat_0"
		},
		{
			"children":[
				0
			],
			"name":"Blossomtree00_jabami_mesh",
			"rotation":[
				-0.70710688829422,
				0,
				0,
				0.7071066498756409
			]
		},
		{
			"children":[
				1
			],
			"name":"RootNode"
		},
		{
			"children":[
				2
			],
			"name":"Blossom_pack.fbx",
			"rotation":[
				0.70710688829422,
				0,
				0,
				0.7071066498756409
			],
			"scale":[
				0.009999999776482582,
				0.010000000707805157,
				0.010000000707805157
			]
		},
		{
			"children":[
				3
			],
			"name":"Sketchfab_model",
			"rotation":[
				-0.70710688829422,
				0,
				0,
				0.7071066498756409
			]
		}
	],
	"materials":[
		{
			"alphaMode":"BLEND",
			"doubleSided":true,
			"name":"Jabami_blossom_mat",
			"pbrMetallicRoughness":{
				"baseColorTexture":{
					"index":0
				},
				"metallicFactor":0
			}
		},
		{
			"doubleSided":true,
			"name":"jabami_tronc_mat",
			"pbrMetallicRoughness":{
				"baseColorTexture":{
					"index":1
				},
				"metallicFactor":0
			}
		}
	],
	"meshes":[
		{
			"name":"Blossomtree00_jabami_mesh_Jabami_blossom_mat_0",
			"primitives":[
				{
					"attributes":{
						"POSITION":0,
						"NORMAL":1,
						"TEXCOORD_0":2
					},
					"indices":3,
					"material":0
				},
				{
					"attributes":{
						"POSITION":4,
						"NORMAL":5,
						"TEXCOORD_0":6
					},
					"indices":7,
					"material":1
				}
			]
		}
	],
	"textures":[
		{
			"sampler":0,
			"source":0
		},
		{
			"sampler":0,
			"source":1
		}
	],
	"images":[
		{
			"mimeType":"image/png",
			"name":"Jabami_blossom_mat_baseColor",
			"uri":"Jabami_blossom_mat_baseColor.png"
		},
		{
			"mimeType":"image/png",
			"name":"jabami_tronc_mat_baseColor",
			"uri":"jabami_tronc_mat_baseColor.png"
		}
	],
	"accessors":[
		{
			"bufferView":0,
			"componentType":5126,
			"count":7008,
			"max":[
				566.0076293945312,
				1499.2408447265625,
				1198.6240234375
			],
			"min":[
				-921.3985595703125,
				-1495.593505859375,
				276.21026611328125
			],
			"type":"VEC3"
		},
		{
			"bufferView":1,
			"componentType":5126,
			"count":7008,
			"type":"VEC3"
		},
		{
			"bufferView":2,
			"componentType":5126,
			"count":7008,
			"type":"VEC2"
		},
		{
			"bufferView":3,
			"componentType":5123,
			"count":10512,
			"type":"SCALAR"
		},
		{
			"bufferView":4,
			"componentType":5126,
			"count":10533,
			"max":[
				541.4022827148438,
				1426.9254150390625,
				1141.5328369140625
			],
			"min":[
				-844.5513916015625,
				-1418.50146484375,
				-0.0002820515655912459
			],
			"type":"VEC3"
		},
		{
			"bufferView":5,
			"componentType":5126,
			"count":10533,
			"type":"VEC3"
		},
		{
			"bufferView":6,
			"componentType":5126,
			"count":10533,
			"type":"VEC2"
		},
		{
			"bufferView":7,
			"componentType":5123,
			"count":46926,
			"type":"SCALAR"
		}
	],
	"bufferViews":[
		{
			"buffer":0,
			"byteLength":84096,
			"byteOffset":0,
			"target":34962
		},
		{
			"buffer":0,
			"byteLength":84096,
			"byteOffset":84096,
			"target":34962
		},
		{
			"buffer":0,
			"byteLength":56064,
			"byteOffset":168192,
			"target":34962
		},
		{
			"buffer":0,
			"byteLength":21024,
			"byteOffset":224256,
			"target":34963
		},
		{
			"buffer":0,
			"byteLength":126396,
			"byteOffset":245280,
			"target":34962
		},
		{
			"buffer":0,
			"byteLength":126396,
			"byteOffset":371676,
			"target":34962
		},
		{
			"buffer":0,
			"byteLength":84264,
			"byteOffset":498072,
			"target":34962
		},
		{
			"buffer":0,
			"byteLength":93852,
			"byteOffset":582336,
			"target":34963
		}
	],
	"samplers":[
		{
			"magFilter":9729,
			"minFilter":9987
		}
	],
	"buffers":[
		{
			"byteLength":676188,
			"uri":"scene.bin"
		}
	]
}
