{
	"asset":{
		"generator":"Khronos glTF Blender I/O v4.2.69",
		"version":"2.0"
	},
	"scene":0,
	"scenes":[
		{
			"name":"Scene",
			"nodes":[
				0
			]
		}
	],
	"nodes":[
		{
			"mesh":0,
			"name":"BirchTree_1_Cube",
			"rotation":[
				0.7158032655715942,
				-0.02592775970697403,
				0.027395285665988922,
				0.6972826719284058
			],
			"scale":[
				2.9648380279541016,
				2.9648380279541016,
				2.9648380279541016
			],
			"translation":[
				11.335317611694336,
				0,
				4.665050506591797
			]
		}
	],
	"meshes":[
		{
			"name":"BirchTree_1_Cube",
			"primitives":[
				{
					"attributes":{
						"POSITION":0,
						"NORMAL":1
					},
					"indices":2
				}
			]
		}
	],
	"accessors":[
		{
			"bufferView":0,
			"componentType":5126,
			"count":10545,
			"max":[
				0.28014999628067017,
				1.2599351406097412,
				0.21806977689266205
			],
			"min":[
				-6.153903961181641,
				-4.843788146972656,
				-4.481482982635498
			],
			"type":"VEC3"
		},
		{
			"bufferView":1,
			"componentType":5126,
			"count":10545,
			"type":"VEC3"
		},
		{
			"bufferView":2,
			"componentType":5123,
			"count":15522,
			"type":"SCALAR"
		}
	],
	"bufferViews":[
		{
			"buffer":0,
			"byteLength":126540,
			"byteOffset":0,
			"target":34962
		},
		{
			"buffer":0,
			"byteLength":126540,
			"byteOffset":126540,
			"target":34962
		},
		{
			"buffer":0,
			"byteLength":31044,
			"byteOffset":253080,
			"target":34963
		}
	],
	"buffers":[
		{
			"byteLength":284124,
			"uri":"alberi-test-tronco.bin"
		}
	]
}
