{
  "accessors": [
    {
      "bufferView": 2,
      "componentType": 5126,
      "count": 6054,
      "max": [
        1.0710268020629883,
        1.5515950918197632,
        3.856688976287842
      ],
      "min": [
        -1.0710268020629883,
        -0.5904585123062134,
        0.14992550015449524
      ],
      "type": "VEC3"
    },
    {
      "bufferView": 2,
      "byteOffset": 72648,
      "componentType": 5126,
      "count": 6054,
      "type": "VEC3"
    },
    {
      "bufferView": 3,
      "componentType": 5126,
      "count": 6054,
      "type": "VEC4"
    },
    {
      "bufferView": 1,
      "componentType": 5126,
      "count": 6054,
      "type": "VEC2"
    },
    {
      "bufferView": 1,
      "byteOffset": 48432,
      "componentType": 5126,
      "count": 6054,
      "type": "VEC2"
    },
    {
      "bufferView": 1,
      "byteOffset": 96864,
      "componentType": 5126,
      "count": 6054,
      "type": "VEC2"
    },
    {
      "bufferView": 0,
      "componentType": 5125,
      "count": 6054,
      "type": "SCALAR"
    }
  ],
  "asset": {
    "generator": "fab-model-conversion",
    "version": "2.0"
  },
  "bufferViews": [
    {
      "buffer": 0,
      "byteLength": 24216,
      "target": 34963
    },
    {
      "buffer": 0,
      "byteLength": 145296,
      "byteOffset": 24216,
      "byteStride": 8,
      "target": 34962
    },
    {
      "buffer": 0,
      "byteLength": 145296,
      "byteOffset": 169512,
      "byteStride": 12,
      "target": 34962
    },
    {
      "buffer": 0,
      "byteLength": 96864,
      "byteOffset": 314808,
      "byteStride": 16,
      "target": 34962
    }
  ],
  "buffers": [
    {
      "byteLength": 411672,
      "uri": "scene.bin"
    }
  ],
  "images": [
    {
      "uri": "textures/LightBulb_baseColor.png"
    },
    {
      "uri": "textures/LightBulb_metallicRoughness.png"
    },
    {
      "uri": "textures/LightBulb_normal.png"
    }
  ],
  "materials": [
    {
      "name": "LightBulb",
      "normalTexture": {
        "index": 2
      },
      "occlusionTexture": {
        "index": 1
      },
      "pbrMetallicRoughness": {
        "baseColorTexture": {
          "index": 0
        },
        "metallicRoughnessTexture": {
          "index": 1
        }
      }
    }
  ],
  "meshes": [
    {
      "name": "LightBulb_LightBulb_0",
      "primitives": [
        {
          "attributes": {
            "NORMAL": 1,
            "POSITION": 0,
            "TANGENT": 2,
            "TEXCOORD_0": 3,
            "TEXCOORD_1": 4,
            "TEXCOORD_2": 5
          },
          "indices": 6,
          "material": 0,
          "mode": 4
        }
      ]
    }
  ],
  "nodes": [
    {
      "children": [
        1
      ],
      "matrix": [
        1.0,
        0.0,
        0.0,
        0.0,
        0.0,
        2.220446049250313e-16,
        -1.0,
        0.0,
        0.0,
        1.0,
        2.220446049250313e-16,
        0.0,
        0.0,
        0.0,
        0.0,
        1.0
      ],
      "name": "Sketchfab_model"
    },
    {
      "children": [
        2
      ],
      "matrix": [
        1.0,
        0.0,
        0.0,
        0.0,
        0.0,
        0.0,
        1.0,
        0.0,
        0.0,
        -1.0,
        0.0,
        0.0,
        0.0,
        0.0,
        0.0,
        1.0
      ],
      "name": "e408d41c50f044b68fcdca687ebf7b3f.fbx"
    },
    {
      "children": [
        3
      ],
      "name": "RootNode"
    },
    {
      "children": [
        4
      ],
      "matrix": [
        0.02539999969303608,
        0.0,
        0.0,
        0.0,
        0.0,
        5.639932896936113e-18,
        -0.02539999969303608,
        0.0,
        0.0,
        0.02539999969303608,
        5.639932896936113e-18,
        0.0,
        0.0,
        0.0,
        0.0,
        1.0
      ],
      "name": "LightBulb"
    },
    {
      "children": [
        5
      ],
      "matrix": [
        1.0,
        0.0,
        -0.0,
        0.0,
        0.0,
        1.0,
        0.0,
        0.0,
        0.0,
        0.0,
        1.0,
        0.0,
        0.0,
        -0.4805682897567749,
        -2.0039961338043213,
        1.0
      ],
      "name": "Object_4"
    },
    {
      "mesh": 0,
      "name": "LightBulb_LightBulb_0"
    }
  ],
  "samplers": [
    {
      "magFilter": 9729,
      "minFilter": 9987,
      "wrapS": 10497,
      "wrapT": 10497
    }
  ],
  "scene": 0,
  "scenes": [
    {
      "name": "Sketchfab_Scene",
      "nodes": [
        0
      ]
    }
  ],
  "textures": [
    {
      "sampler": 0,
      "source": 0
    },
    {
      "sampler": 0,
      "source": 1
    },
    {
      "sampler": 0,
      "source": 2
    }
  ]
}
