{
	"asset":{
		"generator":"Khronos glTF Blender I/O v4.2.69",
		"version":"2.0"
	},
	"scene":0,
	"scenes":[
		{
			"name":"Scene",
			"nodes":[
				0
			]
		}
	],
	"nodes":[
		{
			"mesh":0,
			"name":"Grass_Short_Plane.003",
			"rotation":[
				0.7071068286895752,
				0,
				0,
				0.7071068286895752
			],
			"scale":[
				3.1687605381011963,
				3.1687605381011963,
				3.1687605381011963
			],
			"translation":[
				0.30185651779174805,
				0,
				-6.724084854125977
			]
		}
	],
	"meshes":[
		{
			"name":"Grass_Short_Plane.003",
			"primitives":[
				{
					"attributes":{
						"POSITION":0,
						"NORMAL":1
					},
					"indices":2
				}
			]
		}
	],
	"accessors":[
		{
			"bufferView":0,
			"componentType":5126,
			"count":16342,
			"max":[
				3.7907252311706543,
				4.511263847351074,
				0.21512535214424133
			],
			"min":[
				-3.2425761222839355,
				-1.417324423789978,
				-5.035298824310303
			],
			"type":"VEC3"
		},
		{
			"bufferView":1,
			"componentType":5126,
			"count":16342,
			"type":"VEC3"
		},
		{
			"bufferView":2,
			"componentType":5123,
			"count":24162,
			"type":"SCALAR"
		}
	],
	"bufferViews":[
		{
			"buffer":0,
			"byteLength":196104,
			"byteOffset":0,
			"target":34962
		},
		{
			"buffer":0,
			"byteLength":196104,
			"byteOffset":196104,
			"target":34962
		},
		{
			"buffer":0,
			"byteLength":48324,
			"byteOffset":392208,
			"target":34963
		}
	],
	"buffers":[
		{
			"byteLength":440532,
			"uri":"Alberi-test.bin"
		}
	]
}
