<?xml version="1.0" encoding="UTF-8"?>
<svg id="Livello_1" xmlns="http://www.w3.org/2000/svg" version="1.1" viewBox="0 0 76.5 10.7">
  <!-- Generator: Adobe Illustrator 29.0.0, SVG Export Plug-In . SVG Version: 2.1.0 Build 186)  -->
  <defs>
    <style>
      .st0 {
        fill: #fff;
        fill-rule: evenodd;
      }
    </style>
  </defs>
  <path class="st0" d="M5.5,6.3h-3.1v2.4h3.1c.9,0,1.4-.5,1.4-1.2s-.5-1.2-1.4-1.2h0ZM5.4,2h-3v2.2h3c.8,0,1.3-.4,1.3-1.1s-.5-1.1-1.3-1.1ZM0,10.7V0h5.9C8.1,0,9.2,1.3,9.2,2.7s-.9,2.2-1.9,2.5c1.2.2,2.2,1.3,2.2,2.6s-1.1,2.9-3.3,2.9H0ZM11.2,10.7h2.4V0h-2.4v10.7ZM18.4,10.7V2h-3.3V0h9v2h-3.3v8.7h-2.4ZM35.4,10.7V3l-3.2,7.7h-1l-3.2-7.7v7.7h-2.4V0h3.4l2.7,6.7L34.4,0h3.4v10.7h-2.4ZM44.7,2.3l-1.8,4.6h3.5s-1.8-4.6-1.8-4.6ZM47.8,10.7l-.7-1.8h-4.8l-.7,1.8h-2.7L43.2,0h3l4.3,10.7h-2.7ZM61.4,10.7V3l-3.2,7.7h-1l-3.2-7.7v7.7h-2.4V0h3.4l2.7,6.7L60.4,0h3.4v10.7h-2.4ZM70.7,2.3l-1.8,4.6h3.5s-1.8-4.6-1.8-4.6ZM73.8,10.7l-.7-1.8h-4.8l-.7,1.8h-2.7L69.2,0h3l4.3,10.7s-2.7,0-2.7,0Z"/>
</svg>