{
	"asset":{
		"generator":"Khronos glTF Blender I/O v4.2.69",
		"version":"2.0"
	},
	"scene":0,
	"scenes":[
		{
			"name":"Scene",
			"nodes":[
				0
			]
		}
	],
	"nodes":[
		{
			"mesh":0,
			"name":"NormalTree_1",
			"rotation":[
				-0.70710688829422,
				0,
				0,
				0.7071066498756409
			],
			"scale":[
				100,
				99.99999237060547,
				99.99999237060547
			],
			"translation":[
				3.970827102661133,
				1.6697570085525513,
				0
			]
		}
	],
	"meshes":[
		{
			"name":"NormalTree_1",
			"primitives":[
				{
					"attributes":{
						"POSITION":0,
						"NORMAL":1,
						"TEXCOORD_0":2
					},
					"indices":3
				}
			]
		}
	],
	"accessors":[
		{
			"bufferView":0,
			"componentType":5126,
			"count":36705,
			"max":[
				0.01920256018638611,
				0.08447464555501938,
				0.06856752187013626
			],
			"min":[
				-0.11555418372154236,
				-0.014996792189776897,
				-0.00010010123514803126
			],
			"type":"VEC3"
		},
		{
			"bufferView":1,
			"componentType":5126,
			"count":36705,
			"type":"VEC3"
		},
		{
			"bufferView":2,
			"componentType":5126,
			"count":36705,
			"type":"VEC2"
		},
		{
			"bufferView":3,
			"componentType":5123,
			"count":96660,
			"type":"SCALAR"
		}
	],
	"bufferViews":[
		{
			"buffer":0,
			"byteLength":440460,
			"byteOffset":0,
			"target":34962
		},
		{
			"buffer":0,
			"byteLength":440460,
			"byteOffset":440460,
			"target":34962
		},
		{
			"buffer":0,
			"byteLength":293640,
			"byteOffset":880920,
			"target":34962
		},
		{
			"buffer":0,
			"byteLength":193320,
			"byteOffset":1174560,
			"target":34963
		}
	],
	"buffers":[
		{
			"byteLength":1367880,
			"uri":"alberi-no-collina.bin"
		}
	]
}
