{
	"asset":{
		"generator":"Khronos glTF Blender I/O v4.4.55",
		"version":"2.0"
	},
	"scene":0,
	"scenes":[
		{
			"name":"Scene",
			"nodes":[
				2
			]
		}
	],
	"nodes":[
		{
			"mesh":0,
			"name":"Object_2"
		},
		{
			"children":[
				0
			],
			"name":"model_mesh.obj.cleaner.gles"
		},
		{
			"children":[
				1
			],
			"name":"Sketchfab_model"
		}
	],
	"meshes":[
		{
			"name":"Object_0",
			"primitives":[
				{
					"attributes":{
						"POSITION":0,
						"NORMAL":1,
						"TEXCOORD_0":2
					},
					"indices":3
				}
			]
		}
	],
	"accessors":[
		{
			"bufferView":0,
			"componentType":5126,
			"count":216851,
			"max":[
				0.3952237367630005,
				1.5877392292022705,
				0.24064546823501587
			],
			"min":[
				-0.38937392830848694,
				-0.019572913646697998,
				-0.20534977316856384
			],
			"type":"VEC3"
		},
		{
			"bufferView":1,
			"componentType":5126,
			"count":216851,
			"type":"VEC3"
		},
		{
			"bufferView":2,
			"componentType":5126,
			"count":216851,
			"type":"VEC2"
		},
		{
			"bufferView":3,
			"componentType":5125,
			"count":594984,
			"type":"SCALAR"
		}
	],
	"bufferViews":[
		{
			"buffer":0,
			"byteLength":2602212,
			"byteOffset":0,
			"target":34962
		},
		{
			"buffer":0,
			"byteLength":2602212,
			"byteOffset":2602212,
			"target":34962
		},
		{
			"buffer":0,
			"byteLength":1734808,
			"byteOffset":5204424,
			"target":34962
		},
		{
			"buffer":0,
			"byteLength":2379936,
			"byteOffset":6939232,
			"target":34963
		}
	],
	"buffers":[
		{
			"byteLength":9319168,
			"uri":"person2.bin"
		}
	]
}
