{
	"asset":{
		"generator":"Khronos glTF Blender I/O v4.4.55",
		"version":"2.0"
	},
	"scene":0,
	"scenes":[
		{
			"name":"Scene",
			"nodes":[
				2
			]
		}
	],
	"nodes":[
		{
			"mesh":0,
			"name":"Object_2"
		},
		{
			"children":[
				0
			],
			"name":"model_mesh.obj.cleaner.gles"
		},
		{
			"children":[
				1
			],
			"name":"Sketchfab_model",
			"rotation":[
				-0.70710688829422,
				0,
				0,
				0.7071066498756409
			]
		}
	],
	"meshes":[
		{
			"name":"person1",
			"primitives":[
				{
					"attributes":{
						"POSITION":0,
						"NORMAL":1
					},
					"indices":2
				}
			]
		}
	],
	"accessors":[
		{
			"bufferView":0,
			"componentType":5126,
			"count":114524,
			"max":[
				0.5273561477661133,
				0.6739836931228638,
				1.790104866027832
			],
			"min":[
				0,
				0,
				0
			],
			"type":"VEC3"
		},
		{
			"bufferView":1,
			"componentType":5126,
			"count":114524,
			"type":"VEC3"
		},
		{
			"bufferView":2,
			"componentType":5125,
			"count":601638,
			"type":"SCALAR"
		}
	],
	"bufferViews":[
		{
			"buffer":0,
			"byteLength":1374288,
			"byteOffset":0,
			"target":34962
		},
		{
			"buffer":0,
			"byteLength":1374288,
			"byteOffset":1374288,
			"target":34962
		},
		{
			"buffer":0,
			"byteLength":2406552,
			"byteOffset":2748576,
			"target":34963
		}
	],
	"buffers":[
		{
			"byteLength":5155128,
			"uri":"person1.bin"
		}
	]
}
