{
	"asset":{
		"generator":"Khronos glTF Blender I/O v4.4.55",
		"version":"2.0"
	},
	"scene":0,
	"scenes":[
		{
			"name":"Scene",
			"nodes":[
				2
			]
		}
	],
	"nodes":[
		{
			"mesh":0,
			"name":"Object_5"
		},
		{
			"children":[
				0
			],
			"name":"model_mesh.obj.cleaner.gles"
		},
		{
			"children":[
				1
			],
			"name":"Sketchfab_model"
		}
	],
	"meshes":[
		{
			"name":"Object_3",
			"primitives":[
				{
					"attributes":{
						"POSITION":0,
						"NORMAL":1,
						"TEXCOORD_0":2
					},
					"indices":3
				}
			]
		}
	],
	"accessors":[
		{
			"bufferView":0,
			"componentType":5126,
			"count":214367,
			"max":[
				0.3359234929084778,
				1.7112276554107666,
				0.2358536273241043
			],
			"min":[
				-0.36367854475975037,
				0.0019426447106525302,
				-0.26872530579566956
			],
			"type":"VEC3"
		},
		{
			"bufferView":1,
			"componentType":5126,
			"count":214367,
			"type":"VEC3"
		},
		{
			"bufferView":2,
			"componentType":5126,
			"count":214367,
			"type":"VEC2"
		},
		{
			"bufferView":3,
			"componentType":5125,
			"count":600708,
			"type":"SCALAR"
		}
	],
	"bufferViews":[
		{
			"buffer":0,
			"byteLength":2572404,
			"byteOffset":0,
			"target":34962
		},
		{
			"buffer":0,
			"byteLength":2572404,
			"byteOffset":2572404,
			"target":34962
		},
		{
			"buffer":0,
			"byteLength":1714936,
			"byteOffset":5144808,
			"target":34962
		},
		{
			"buffer":0,
			"byteLength":2402832,
			"byteOffset":6859744,
			"target":34963
		}
	],
	"buffers":[
		{
			"byteLength":9262576,
			"uri":"person3.bin"
		}
	]
}
