{
  "accessors": [
    {
      "bufferView": 2,
      "componentType": 5126,
      "count": 6121,
      "max": [
        1.0291889905929565,
        1.02531898021698,
        1.0229220390319824
      ],
      "min": [
        -0.9933450222015381,
        -1.0189470052719116,
        -1.0307379961013794
      ],
      "type": "VEC3"
    },
    {
      "bufferView": 2,
      "byteOffset": 73452,
      "componentType": 5126,
      "count": 6121,
      "max": [
        0.9976740479469299,
        0.9881694912910461,
        0.997610867023468
      ],
      "min": [
        -0.9759083986282349,
        -0.9882622361183167,
        -1.0
      ],
      "type": "VEC3"
    },
    {
      "bufferView": 1,
      "componentType": 5126,
      "count": 6121,
      "max": [
        0.9949010014533997,
        0.9949010014533997
      ],
      "min": [
        0.005098999943584204,
        0.005098999943584204
      ],
      "type": "VEC2"
    },
    {
      "bufferView": 0,
      "componentType": 5125,
      "count": 19338,
      "type": "SCALAR"
    }
  ],
  "asset": {
    "extras": {
      "author": "camelCaseSensitive (https://sketchfab.com/camelCaseSensitive)",
      "license": "CC-BY-4.0 (http://creativecommons.org/licenses/by/4.0/)",
      "source": "https://sketchfab.com/3d-models/neumorphic-globe-continents-of-planet-earth-dcd12ed8f0c048ffa3bb6bff6b0b3b2e",
      "title": "Neumorphic Globe - Continents of Planet Earth"
    },
    "generator": "Sketchfab-15.28.0",
    "version": "2.0"
  },
  "bufferViews": [
    {
      "buffer": 0,
      "byteLength": 77352,
      "name": "floatBufferViews",
      "target": 34963
    },
    {
      "buffer": 0,
      "byteLength": 48968,
      "byteOffset": 77352,
      "byteStride": 8,
      "name": "floatBufferViews",
      "target": 34962
    },
    {
      "buffer": 0,
      "byteLength": 146904,
      "byteOffset": 126320,
      "byteStride": 12,
      "name": "floatBufferViews",
      "target": 34962
    }
  ],
  "buffers": [
    {
      "byteLength": 273224,
      "uri": "scene.bin"
    }
  ],
  "materials": [
    {
      "doubleSided": true,
      "name": "Default_OBJ",
      "pbrMetallicRoughness": {
        "metallicFactor": 0.0,
        "roughnessFactor": 0.6
      }
    }
  ],
  "meshes": [
    {
      "name": "Object_0",
      "primitives": [
        {
          "attributes": {
            "NORMAL": 1,
            "POSITION": 0,
            "TEXCOORD_0": 2
          },
          "indices": 3,
          "material": 0,
          "mode": 4
        }
      ]
    }
  ],
  "nodes": [
    {
      "children": [
        1
      ],
      "matrix": [
        1.0,
        0.0,
        0.0,
        0.0,
        0.0,
        2.220446049250313e-16,
        -1.0,
        0.0,
        0.0,
        1.0,
        2.220446049250313e-16,
        0.0,
        0.0,
        0.0,
        0.0,
        1.0
      ],
      "name": "Sketchfab_model"
    },
    {
      "children": [
        2
      ],
      "name": "HDCoasts.obj.cleaner.materialmerger.gles"
    },
    {
      "mesh": 0,
      "name": "Object_2"
    }
  ],
  "scene": 0,
  "scenes": [
    {
      "name": "Sketchfab_Scene",
      "nodes": [
        0
      ]
    }
  ]
}
