{
	"asset":{
		"generator":"Khronos glTF Blender I/O v4.4.55",
		"version":"2.0"
	},
	"scene":0,
	"scenes":[
		{
			"name":"Scene",
			"nodes":[
				2
			]
		}
	],
	"nodes":[
		{
			"mesh":0,
			"name":"Object_2"
		},
		{
			"children":[
				0
			],
			"name":"HDCoasts.obj.cleaner.materialmerger.gles"
		},
		{
			"children":[
				1
			],
			"name":"Sketchfab_model",
			"rotation":[
				-0.70710688829422,
				0,
				0,
				0.7071066498756409
			]
		}
	],
	"materials":[
		{
			"doubleSided":true,
			"name":"Default_OBJ",
			"pbrMetallicRoughness":{
				"metallicFactor":0,
				"roughnessFactor":0.6000000238418579
			}
		}
	],
	"meshes":[
		{
			"name":"Object_0",
			"primitives":[
				{
					"attributes":{
						"POSITION":0,
						"NORMAL":1,
						"TEXCOORD_0":2
					},
					"indices":3,
					"material":0
				}
			]
		}
	],
	"accessors":[
		{
			"bufferView":0,
			"componentType":5126,
			"count":7545,
			"max":[
				1.0291889905929565,
				1.02531898021698,
				1.0229220390319824
			],
			"min":[
				-0.9933450222015381,
				-1.0189470052719116,
				-1.0307379961013794
			],
			"type":"VEC3"
		},
		{
			"bufferView":1,
			"componentType":5126,
			"count":7545,
			"type":"VEC3"
		},
		{
			"bufferView":2,
			"componentType":5126,
			"count":7545,
			"type":"VEC2"
		},
		{
			"bufferView":3,
			"componentType":5123,
			"count":19338,
			"type":"SCALAR"
		}
	],
	"bufferViews":[
		{
			"buffer":0,
			"byteLength":90540,
			"byteOffset":0,
			"target":34962
		},
		{
			"buffer":0,
			"byteLength":90540,
			"byteOffset":90540,
			"target":34962
		},
		{
			"buffer":0,
			"byteLength":60360,
			"byteOffset":181080,
			"target":34962
		},
		{
			"buffer":0,
			"byteLength":38676,
			"byteOffset":241440,
			"target":34963
		}
	],
	"buffers":[
		{
			"byteLength":280116,
			"uri":"world2.bin"
		}
	]
}
