<svg width="137" height="37" viewBox="0 0 137 37" fill="none" xmlns="http://www.w3.org/2000/svg">
<g clip-path="url(#clip0_70_114942)">
<path d="M54.726 17.2229C54.726 15.4306 53.2769 13.963 51.4762 13.963V31.9277H54.726V17.2087V17.2229ZM85.6764 31.9418H88.9262V13.7795H85.6764V31.9418ZM119.666 26.8332C119.666 27.2848 119.567 27.6799 119.384 28.0468C119.201 28.4138 118.934 28.7242 118.596 28.9782C118.259 29.2323 117.865 29.4439 117.415 29.5851C116.964 29.7262 116.472 29.7967 115.937 29.7967C115.178 29.7967 114.531 29.6274 114.01 29.2605C113.49 28.9077 113.222 28.3855 113.222 27.7082V27.6517C113.222 26.9743 113.504 26.4381 114.08 26.0429C114.643 25.6478 115.445 25.4502 116.458 25.4502C117.077 25.4502 117.668 25.5067 118.231 25.6054C118.779 25.7183 119.272 25.8454 119.68 26.0006V26.805L119.666 26.8332ZM116.599 17.6039C115.445 17.6039 114.46 17.7168 113.644 17.9285C112.828 18.1401 112.026 18.4224 111.253 18.7893L112.125 21.3859C112.772 21.1178 113.391 20.9061 114.024 20.7368C114.643 20.5815 115.361 20.4969 116.149 20.4969C117.274 20.4969 118.132 20.7509 118.723 21.273C119.314 21.7952 119.623 22.5431 119.623 23.5169V23.785C119.075 23.6015 118.498 23.4604 117.907 23.3616C117.316 23.2487 116.585 23.2064 115.741 23.2064C114.896 23.2064 114.165 23.3052 113.461 23.4886C112.758 23.6721 112.153 23.9684 111.647 24.3495C111.14 24.7305 110.746 25.2103 110.465 25.7889C110.169 26.3675 110.043 27.0449 110.043 27.8352V27.8916C110.043 28.5972 110.184 29.2323 110.451 29.7826C110.718 30.333 111.084 30.7846 111.548 31.1515C111.998 31.5184 112.533 31.8007 113.138 31.9841C113.743 32.1676 114.39 32.2664 115.065 32.2664C116.134 32.2664 117.035 32.0688 117.78 31.6737C118.526 31.2785 119.145 30.7987 119.623 30.2342V31.97H122.817V23.6015C122.817 21.7105 122.31 20.2428 121.298 19.1985C120.285 18.1543 118.723 17.6321 116.627 17.6321M78.5578 26.8614C78.5578 27.313 78.4593 27.7082 78.2764 28.0751C78.0936 28.442 77.8263 28.7524 77.4886 29.0065C77.151 29.2605 76.7571 29.4722 76.3069 29.6133C75.8567 29.7544 75.3643 29.825 74.8297 29.825C74.07 29.825 73.4229 29.6556 72.8883 29.2887C72.3677 28.9359 72.1004 28.4138 72.1004 27.7364V27.6799C72.1004 27.0025 72.3818 26.4663 72.9586 26.0711C73.5213 25.676 74.3232 25.4784 75.3362 25.4784C75.9552 25.4784 76.546 25.5349 77.1088 25.6337C77.6715 25.7466 78.1498 25.8736 78.5578 26.0288V26.8332V26.8614ZM75.4909 17.6321C74.3373 17.6321 73.3525 17.745 72.5366 17.9567C71.7206 18.1684 70.9187 18.4506 70.1449 18.8175L71.0312 21.4141C71.6643 21.146 72.2974 20.9343 72.9305 20.765C73.5495 20.6098 74.267 20.5251 75.0689 20.5251C76.1803 20.5251 77.0384 20.7791 77.6434 21.3013C78.2342 21.8234 78.5438 22.5713 78.5438 23.5451V23.8132C77.9951 23.6298 77.4183 23.4886 76.8274 23.3898C76.2365 23.2769 75.505 23.2346 74.6609 23.2346C73.8168 23.2346 73.0852 23.3334 72.3818 23.5169C71.6784 23.7003 71.0734 23.9967 70.567 24.3777C70.0605 24.7587 69.6666 25.2385 69.3852 25.8171C69.1039 26.3957 68.9632 27.0731 68.9632 27.8634V27.9198C68.9632 28.6254 69.1039 29.2605 69.3712 29.8109C69.6525 30.3612 70.0183 30.8128 70.4685 31.1797C70.9187 31.5466 71.4533 31.8289 72.0582 32.0123C72.6632 32.1958 73.2962 32.2946 73.9856 32.2946C75.0548 32.2946 75.9552 32.097 76.7008 31.7019C77.4464 31.3067 78.0654 30.8269 78.5438 30.2624V31.9982H81.7373V23.6297C81.7373 21.7387 81.2308 20.2711 80.2179 19.2268C79.205 18.1825 77.6574 17.6603 75.5472 17.6603M62.1119 32.0265C62.6184 32.1676 63.1529 32.2381 63.7438 32.2381C64.3347 32.2381 64.8834 32.1817 65.3476 32.0547C65.8119 31.9277 66.248 31.7583 66.656 31.5184V28.8653C66.0088 29.1899 65.3476 29.3452 64.6583 29.3452C64.1096 29.3452 63.6875 29.204 63.378 28.9218C63.0685 28.6537 62.9279 28.2021 62.9279 27.567V20.638H66.7122V17.8579H62.9279V13.9771H59.6781V28.061C59.6781 28.8512 59.7765 29.5004 59.9735 30.0225C60.1705 30.5447 60.4518 30.968 60.8176 31.2926C61.1834 31.6172 61.6195 31.843 62.126 31.9841M103.881 24.2225C103.881 24.7869 103.768 25.3091 103.543 25.7889C103.318 26.2687 103.023 26.678 102.657 27.0167C102.291 27.3695 101.841 27.6376 101.335 27.821C100.828 28.0045 100.308 28.1033 99.7448 28.1033C99.1821 28.1033 98.6756 28.0045 98.1832 27.821C97.6908 27.6376 97.2828 27.3695 96.917 27.0167C96.5653 26.6639 96.2699 26.2546 96.0589 25.7889C95.8478 25.3232 95.7353 24.7869 95.7353 24.1942V24.1378C95.7353 23.5451 95.8338 23.0229 96.0448 22.5431C96.2558 22.0774 96.5372 21.6682 96.903 21.3295C97.2688 20.9908 97.6908 20.7227 98.1691 20.5392C98.6475 20.3557 99.168 20.257 99.7448 20.257C100.322 20.257 100.828 20.3557 101.335 20.5392C101.841 20.7227 102.277 20.9908 102.657 21.3436C103.023 21.6964 103.332 22.1056 103.543 22.5713C103.768 23.037 103.881 23.5733 103.881 24.166V24.2225ZM103.825 19.9465C103.276 19.2973 102.615 18.7187 101.841 18.253C101.067 17.7732 100.082 17.5474 98.8866 17.5474C98.0707 17.5474 97.2687 17.7027 96.495 17.999C95.7212 18.2954 95.0319 18.7328 94.441 19.2973C93.8501 19.8618 93.3718 20.5533 93.006 21.3859C92.6543 22.2185 92.4714 23.1499 92.4714 24.1801V24.2366C92.4714 25.2668 92.6403 26.1982 93.006 27.0167C93.3718 27.8352 93.8361 28.5267 94.441 29.0911C95.0319 29.6556 95.7212 30.079 96.4809 30.3895C97.2406 30.6999 98.0425 30.841 98.8866 30.841C100.04 30.841 101.011 30.6011 101.799 30.1213C102.587 29.6415 103.262 29.0206 103.853 28.2444V29.3452C103.853 30.7705 103.473 31.8571 102.699 32.5909C101.939 33.3248 100.828 33.6917 99.3931 33.6917C98.4364 33.6917 97.5501 33.5647 96.7342 33.2965C95.9182 33.0284 95.1304 32.6615 94.3847 32.1958L93.1889 34.6231C95.0319 35.7379 97.1281 36.2883 99.4775 36.2883C100.758 36.2883 101.883 36.1331 102.854 35.8226C103.825 35.5121 104.627 35.0323 105.274 34.3973C106.469 33.1978 107.06 31.4337 107.06 29.077V17.8438H103.839V19.9606L103.825 19.9465ZM136.379 26.1135C136.112 25.676 135.774 25.295 135.352 24.9845C134.93 24.674 134.466 24.4059 133.959 24.1942C133.453 23.9826 132.932 23.7991 132.412 23.6297C132.004 23.5027 131.61 23.3757 131.23 23.2487C130.85 23.1217 130.512 22.9806 130.217 22.8254C129.921 22.6701 129.682 22.5008 129.513 22.3173C129.331 22.1339 129.246 21.9081 129.246 21.6682V21.6117C129.246 21.2025 129.415 20.8638 129.767 20.5956C130.118 20.3275 130.597 20.2005 131.216 20.2005C131.807 20.2005 132.44 20.3134 133.129 20.5674C133.818 20.8073 134.508 21.1319 135.183 21.5412L136.463 19.2268C135.718 18.7187 134.888 18.3236 133.987 18.0414C133.087 17.7591 132.186 17.6039 131.3 17.6039C130.611 17.6039 129.95 17.7027 129.345 17.9002C128.726 18.0978 128.191 18.38 127.741 18.747C127.291 19.128 126.939 19.5796 126.672 20.1158C126.418 20.6521 126.292 21.2448 126.292 21.9081V21.9645C126.292 22.6419 126.418 23.2064 126.7 23.6721C126.967 24.1378 127.305 24.5188 127.727 24.8434C128.149 25.1539 128.613 25.4079 129.148 25.6054C129.668 25.803 130.189 25.9724 130.709 26.1135C131.117 26.2405 131.511 26.3675 131.905 26.4945C132.285 26.6215 132.623 26.7485 132.918 26.8896C133.213 27.0308 133.439 27.2001 133.607 27.3977C133.776 27.5953 133.861 27.821 133.861 28.0892V28.1456C133.861 28.6113 133.678 28.9782 133.284 29.2464C132.904 29.5286 132.369 29.6556 131.666 29.6556C130.934 29.6556 130.175 29.5145 129.387 29.2181C128.599 28.9218 127.811 28.4843 127.051 27.9198L125.617 30.1213C126.503 30.8269 127.474 31.3632 128.515 31.716C129.556 32.0829 130.583 32.2523 131.596 32.2523C132.327 32.2523 133.002 32.1535 133.65 31.97C134.283 31.7866 134.845 31.5043 135.31 31.1515C135.774 30.7846 136.154 30.333 136.421 29.7685C136.688 29.2181 136.815 28.569 136.815 27.821V27.7646C136.815 27.1296 136.688 26.5792 136.421 26.1417" fill="#8E8E8E"/>
<path d="M30.9504 36.5C26.1109 36.5 21.6231 34.6795 18.317 31.3632C14.9688 28.0186 13.1258 23.4322 13.1258 18.4647L12.971 14.4428C12.971 10.8301 11.7752 7.62662 9.51022 5.18522C7.28742 2.81439 4.15017 1.24794 0.43612 0.683457H0.407983V0.5H42.9367V11.2252L42.8804 11.1688C40.7701 9.1225 37.239 7.85241 33.6516 7.85241C29.8812 7.85241 26.6736 9.02372 24.3664 11.2252C21.9467 13.5396 20.6805 16.8983 20.6805 20.9343C20.6805 23.8838 21.8341 26.6639 23.9303 28.7666C26.0265 30.8693 28.798 32.0265 31.7523 32.0265C34.0173 32.0265 36.1839 31.3491 38.0409 30.0508V22.4726H30.0078C30.0078 22.4726 29.9094 22.4584 29.8812 22.4161C29.8531 22.3879 29.839 22.3314 29.839 22.2891C30.0078 20.8356 30.9082 19.5372 32.2025 18.9022C33.4405 18.253 35.1991 17.9708 38.069 17.9426H42.9367V31.9136C39.6447 34.8771 35.382 36.5 30.9645 36.5M8.38475 35.8791H0V35.8508L0.0562735 5.74971H0.0844102C4.65663 5.74971 8.37068 9.48942 8.37068 14.0759V35.8932L8.38475 35.8791Z" fill="#008AC2"/>
</g>
<defs>
<clipPath id="clip0_70_114942">
<rect width="136.66" height="36" fill="white" transform="translate(0 0.5)"/>
</clipPath>
</defs>
</svg>
