{
	"asset":{
		"generator":"Khronos glTF Blender I/O v4.4.55",
		"version":"2.0"
	},
	"scene":0,
	"scenes":[
		{
			"name":"Scene",
			"nodes":[
				1,
				2,
				3,
				4,
				5
			]
		}
	],
	"nodes":[
		{
			"mesh":0,
			"name":"Crown.004"
		},
		{
			"children":[
				0
			],
			"name":"TreeOrigin.002",
			"rotation":[
				0,
				-0.819148600101471,
				0,
				0.573581337928772
			],
			"scale":[
				0.8918778300285339,
				0.8918777704238892,
				0.8918778300285339
			],
			"translation":[
				-4.5443434715271,
				0,
				11.164953231811523
			]
		},
		{
			"name":"TreeOrigin",
			"translation":[
				12.379486083984375,
				0,
				-11.906986236572266
			]
		},
		{
			"name":"Tree_base",
			"scale":[
				0.7859823703765869,
				0.7859823703765869,
				0.7859823703765869
			],
			"translation":[
				14.642452239990234,
				0,
				3.7799956798553467
			]
		},
		{
			"name":"Tree_base.001",
			"rotation":[
				0,
				0.8112806677818298,
				0,
				0.5846568942070007
			],
			"scale":[
				0.7859823703765869,
				0.7859823703765869,
				0.7859823703765869
			],
			"translation":[
				-1.7978754043579102,
				0,
				-18.5644474029541
			]
		},
		{
			"name":"TreeOrigin.001",
			"rotation":[
				0,
				-0.819148600101471,
				0,
				0.573581337928772
			],
			"scale":[
				0.8918778300285339,
				0.8918777704238892,
				0.8918778300285339
			],
			"translation":[
				-4.5443434715271,
				0,
				11.164953231811523
			]
		}
	],
	"meshes":[
		{
			"name":"Crown.004",
			"primitives":[
				{
					"attributes":{
						"POSITION":0,
						"NORMAL":1,
						"TEXCOORD_0":2
					},
					"indices":3
				}
			]
		}
	],
	"accessors":[
		{
			"bufferView":0,
			"componentType":5126,
			"count":15572,
			"max":[
				3.1783652305603027,
				11.282784461975098,
				12.601980209350586
			],
			"min":[
				-35.305335998535156,
				-0.03672652691602707,
				-20.09799575805664
			],
			"type":"VEC3"
		},
		{
			"bufferView":1,
			"componentType":5126,
			"count":15572,
			"type":"VEC3"
		},
		{
			"bufferView":2,
			"componentType":5126,
			"count":15572,
			"type":"VEC2"
		},
		{
			"bufferView":3,
			"componentType":5123,
			"count":18597,
			"type":"SCALAR"
		}
	],
	"bufferViews":[
		{
			"buffer":0,
			"byteLength":186864,
			"byteOffset":0,
			"target":34962
		},
		{
			"buffer":0,
			"byteLength":186864,
			"byteOffset":186864,
			"target":34962
		},
		{
			"buffer":0,
			"byteLength":124576,
			"byteOffset":373728,
			"target":34962
		},
		{
			"buffer":0,
			"byteLength":37194,
			"byteOffset":498304,
			"target":34963
		}
	],
	"buffers":[
		{
			"byteLength":535500,
			"uri":"scene.bin"
		}
	]
}
