{
	"asset":{
		"generator":"Khronos glTF Blender I/O v4.2.69",
		"version":"2.0"
	},
	"scene":0,
	"scenes":[
		{
			"name":"Scene",
			"nodes":[
				1
			]
		}
	],
	"nodes":[
		{
			"mesh":0,
			"name":"Crown.003",
			"translation":[
				-9.427905082702637,
				0,
				-5.101112365722656
			]
		},
		{
			"children":[
				0
			],
			"name":"TreeOrigin.001",
			"rotation":[
				0,
				-0.819148600101471,
				0,
				0.573581337928772
			],
			"scale":[
				0.8918778300285339,
				0.8918777704238892,
				0.8918778300285339
			],
			"translation":[
				-4.5443434715271,
				1.722000241279602,
				11.164953231811523
			]
		}
	],
	"meshes":[
		{
			"name":"Crown.003",
			"primitives":[
				{
					"attributes":{
						"POSITION":0,
						"NORMAL":1,
						"TEXCOORD_0":2
					},
					"indices":3
				}
			]
		}
	],
	"accessors":[
		{
			"bufferView":0,
			"componentType":5126,
			"count":13202,
			"max":[
				27.452926635742188,
				14.345732688903809,
				36.12575912475586
			],
			"min":[
				-35.60952377319336,
				-1.9061087369918823,
				-26.936676025390625
			],
			"type":"VEC3"
		},
		{
			"bufferView":1,
			"componentType":5126,
			"count":13202,
			"type":"VEC3"
		},
		{
			"bufferView":2,
			"componentType":5126,
			"count":13202,
			"type":"VEC2"
		},
		{
			"bufferView":3,
			"componentType":5123,
			"count":16230,
			"type":"SCALAR"
		}
	],
	"bufferViews":[
		{
			"buffer":0,
			"byteLength":158424,
			"byteOffset":0,
			"target":34962
		},
		{
			"buffer":0,
			"byteLength":158424,
			"byteOffset":158424,
			"target":34962
		},
		{
			"buffer":0,
			"byteLength":105616,
			"byteOffset":316848,
			"target":34962
		},
		{
			"buffer":0,
			"byteLength":32460,
			"byteOffset":422464,
			"target":34963
		}
	],
	"buffers":[
		{
			"byteLength":454924,
			"uri":"scene.bin"
		}
	]
}
