{
	"asset":{
		"generator":"Khronos glTF Blender I/O v4.4.55",
		"version":"2.0"
	},
	"scene":0,
	"scenes":[
		{
			"name":"Scene",
			"nodes":[
				1
			]
		}
	],
	"nodes":[
		{
			"mesh":0,
			"name":"Object_38"
		},
		{
			"children":[
				0
			],
			"name":"Object_37",
			"translation":[
				3.1192901134490967,
				0.19575196504592896,
				-0.19559703767299652
			]
		}
	],
	"meshes":[
		{
			"name":"Object_16",
			"primitives":[
				{
					"attributes":{
						"POSITION":0,
						"NORMAL":1,
						"TEXCOORD_0":2
					},
					"indices":3
				}
			]
		}
	],
	"accessors":[
		{
			"bufferView":0,
			"componentType":5126,
			"count":1526,
			"max":[
				0.6961653232574463,
				1.9653581380844116,
				2.0025601387023926
			],
			"min":[
				-3.587327003479004,
				-1.5811687707901,
				-1.08223295211792
			],
			"type":"VEC3"
		},
		{
			"bufferView":1,
			"componentType":5126,
			"count":1526,
			"type":"VEC3"
		},
		{
			"bufferView":2,
			"componentType":5126,
			"count":1526,
			"type":"VEC2"
		},
		{
			"bufferView":3,
			"componentType":5123,
			"count":6810,
			"type":"SCALAR"
		}
	],
	"bufferViews":[
		{
			"buffer":0,
			"byteLength":18312,
			"byteOffset":0,
			"target":34962
		},
		{
			"buffer":0,
			"byteLength":18312,
			"byteOffset":18312,
			"target":34962
		},
		{
			"buffer":0,
			"byteLength":12208,
			"byteOffset":36624,
			"target":34962
		},
		{
			"buffer":0,
			"byteLength":13620,
			"byteOffset":48832,
			"target":34963
		}
	],
	"buffers":[
		{
			"byteLength":62452,
			"uri":"molecules1.bin"
		}
	]
}
